<svg width="196" height="59" viewBox="0 0 196 59" fill="none" xmlns="http://www.w3.org/2000/svg">
<path d="M5.26462 29.4092C5.26462 30.9069 4.08462 32.0869 2.63231 32.0869C1.18 32.0869 0 30.8615 0 29.4092C0 27.9115 1.18 26.7315 2.63231 26.7315C4.08462 26.7315 5.26462 27.9569 5.26462 29.4092Z" fill="white"/>
<path d="M11.9816 12.3446V46.4739C11.9816 47.6539 12.8893 48.5615 14.0693 48.5615C15.2039 48.5615 16.1116 47.6539 16.157 46.4739V12.3446C16.157 11.1646 15.2493 10.2569 14.0693 10.2569C12.8893 10.2569 11.9816 11.21 11.9816 12.3446Z" fill="white"/>
<path d="M11.9522 12.4396L11.7829 46.4327C11.7769 47.6358 12.7474 48.616 13.9505 48.622C15.1536 48.628 16.1338 47.6575 16.1398 46.4544L16.3092 12.4613C16.3151 11.2582 15.3447 10.278 14.1415 10.272C12.9384 10.266 11.9582 11.2365 11.9522 12.4396Z" fill="white"/>
<path d="M25.0523 43.3423C23.8723 43.3423 22.9646 42.4346 22.9646 41.2546V17.5639C22.9646 16.3839 23.8723 15.4762 25.0523 15.4762C26.2323 15.4762 27.14 16.3839 27.14 17.5639V41.2546C27.1854 42.4346 26.2323 43.3423 25.0523 43.3423Z" fill="white"/>
<path d="M36.1262 59C34.9462 59 34.0385 58.0923 34.0385 56.9123V2.08769C34.0385 0.907692 34.9462 0 36.1262 0C37.3062 0 38.2139 0.907692 38.2139 2.08769V56.9123C38.1685 58.0469 37.2608 59 36.1262 59Z" fill="white"/>
<path d="M47.1546 37.6692C45.9746 37.6692 45.067 36.7615 45.067 35.5815V23.2823C45.067 22.1023 45.9746 21.1946 47.1546 21.1946C48.3346 21.1946 49.2423 22.1023 49.2423 23.2823V35.5815C49.2423 36.7161 48.2893 37.6692 47.1546 37.6692Z" fill="white"/>
<path d="M76.0192 21.513C76.3823 21.513 76.7 21.4222 76.9269 21.1953C77.1538 20.9684 77.29 20.6961 77.29 20.3784C77.29 20.0153 77.1538 19.743 76.9269 19.5161C76.7 19.2891 76.3823 19.1984 76.0192 19.1984H63.9469C63.5838 19.1984 63.2661 19.3345 63.0392 19.5614C62.8123 19.7884 62.6761 20.1061 62.6761 20.4691V38.5776C62.6761 38.9407 62.8123 39.2584 63.0392 39.4853C63.2661 39.7122 63.5838 39.8484 63.9469 39.8484H76.0192C76.3823 39.8484 76.7 39.7576 76.9269 39.5307C77.1538 39.3037 77.29 39.0314 77.29 38.6684C77.29 38.3507 77.1538 38.0784 76.9269 37.8514C76.7 37.6245 76.3823 37.5337 76.0192 37.5337H65.1723V30.5899H73.0238C73.3869 30.5899 73.7046 30.4991 73.9315 30.2722C74.1585 30.0453 74.2946 29.773 74.2946 29.4553C74.2946 29.0922 74.1585 28.8199 73.9315 28.593C73.7046 28.3661 73.3869 28.2753 73.0238 28.2753H65.2177V21.513H76.0192Z" fill="white"/>
<path d="M93.4469 37.3516H83.6439V20.4685C83.6439 20.1054 83.5077 19.8331 83.2808 19.5608C83.0539 19.3339 82.7362 19.1977 82.3731 19.1977C82.0554 19.1977 81.7377 19.3339 81.5108 19.5608C81.2839 19.7877 81.1477 20.1054 81.1477 20.4685V38.577C81.1477 38.94 81.2839 39.2577 81.5108 39.4846C81.7377 39.7116 82.0554 39.8477 82.4185 39.8477H93.4469C93.81 39.8477 94.0823 39.7116 94.3546 39.4846C94.5816 39.2577 94.7177 38.94 94.7177 38.577C94.7177 38.2139 94.5816 37.9416 94.3546 37.6693C94.0823 37.4423 93.7646 37.3516 93.4469 37.3516Z" fill="white"/>
<path d="M109.332 20.2415C109.286 19.9239 109.195 19.6969 108.968 19.47C108.787 19.2885 108.515 19.1523 108.242 19.1523C107.97 19.1523 107.743 19.1977 107.562 19.2885C107.38 19.3792 107.244 19.5608 107.108 19.7423L100.708 29.9539L94.4 19.8785C94.2638 19.6515 94.1277 19.47 93.9461 19.3792C93.81 19.2431 93.5831 19.1977 93.2654 19.1977C92.9477 19.1977 92.7207 19.2885 92.4938 19.47C92.2669 19.6515 92.1307 19.8785 92.0854 20.1962C92.04 20.5139 92.1307 20.8315 92.3123 21.1492L99.4377 32.2685V38.5769C99.4377 38.94 99.5738 39.2123 99.8007 39.4846C100.028 39.7115 100.345 39.8477 100.708 39.8477C101.072 39.8477 101.344 39.7115 101.616 39.4846C101.843 39.2577 101.979 38.94 101.979 38.5769V32.2685L109.15 21.1492C109.286 20.8315 109.332 20.5139 109.332 20.2415Z" fill="white"/>
<path d="M117.319 20.0146C117.092 19.47 116.729 19.1523 116.139 19.1523C115.595 19.1523 115.186 19.4246 114.959 20.0146L107.425 37.9869C107.244 38.3954 107.244 38.8039 107.471 39.2123C107.698 39.6208 108.061 39.8023 108.515 39.8023C108.742 39.8023 108.968 39.7569 109.195 39.6208C109.422 39.4846 109.558 39.3031 109.695 39.0308L111.283 35.1277H120.995L122.584 39.0308C122.675 39.2577 122.856 39.4846 123.083 39.6208C123.31 39.7569 123.537 39.8023 123.764 39.8023C124.218 39.8023 124.581 39.6208 124.808 39.2577C125.035 38.8946 125.08 38.4862 124.898 38.0323L117.319 20.0146ZM112.145 33.04L116.185 23.2369L120.178 33.04H112.145Z" fill="white"/>
<path d="M141.464 22.0569C140.556 21.1492 139.467 20.4231 138.196 19.9239C136.925 19.4246 135.564 19.1523 134.066 19.1523H129.301C128.938 19.1523 128.62 19.2885 128.393 19.5154C128.166 19.7423 128.03 20.06 128.03 20.4231V38.5315C128.03 38.8946 128.166 39.2123 128.393 39.4392C128.62 39.6662 128.938 39.8023 129.301 39.8023H134.066C135.564 39.8023 136.971 39.53 138.196 39.0308C139.467 38.5315 140.511 37.8054 141.464 36.8977C142.371 35.99 143.098 34.9008 143.597 33.63C144.096 32.3592 144.323 30.9977 144.323 29.4546C144.323 27.9569 144.096 26.55 143.597 25.3246C143.098 24.0992 142.371 23.01 141.464 22.0569ZM140.874 33.6754C140.193 34.9008 139.285 35.8538 138.105 36.5346C136.925 37.2154 135.564 37.5785 134.066 37.5785H130.571V21.4215H134.066C135.609 21.4215 136.971 21.7846 138.105 22.4654C139.285 23.1462 140.193 24.0992 140.874 25.3246C141.555 26.55 141.872 27.9115 141.872 29.5C141.872 31.0431 141.555 32.45 140.874 33.6754Z" fill="white"/>
<path d="M155.987 20.0146C155.76 19.47 155.397 19.1523 154.807 19.1523C154.262 19.1523 153.854 19.4246 153.627 20.0146L146.093 37.9869C145.912 38.3954 145.912 38.8039 146.138 39.2123C146.365 39.6208 146.728 39.8023 147.182 39.8023C147.409 39.8023 147.636 39.7569 147.863 39.6208C148.09 39.4846 148.226 39.3031 148.362 39.0308L149.951 35.1277H159.663L161.252 39.0308C161.342 39.2577 161.524 39.4846 161.751 39.6208C161.978 39.7569 162.205 39.8023 162.432 39.8023C162.885 39.8023 163.248 39.6208 163.475 39.2577C163.702 38.8946 163.748 38.4862 163.566 38.0323L155.987 20.0146ZM150.813 33.04L154.852 23.2369L158.846 33.04H150.813Z" fill="white"/>
<path d="M177.771 21.5123C178.135 21.5123 178.407 21.4216 178.634 21.1946C178.861 20.9677 178.951 20.6954 178.951 20.3777C178.951 20.0146 178.861 19.7423 178.634 19.5154C178.407 19.2885 178.135 19.1977 177.771 19.1977H171.871H169.375H163.475C163.112 19.1977 162.84 19.2885 162.613 19.5154C162.386 19.7423 162.295 20.0146 162.295 20.3777C162.295 20.6954 162.386 20.9677 162.613 21.1946C162.84 21.4216 163.112 21.5123 163.475 21.5123H169.375V38.577C169.375 38.94 169.512 39.2123 169.738 39.4846C169.965 39.7116 170.283 39.8477 170.601 39.8477C170.964 39.8477 171.281 39.7116 171.508 39.4846C171.735 39.2577 171.871 38.94 171.871 38.577V21.5123H177.771Z" fill="white"/>
<path d="M195.335 38.0323L187.756 20.0146C187.529 19.47 187.166 19.1523 186.576 19.1523C186.032 19.1523 185.623 19.4246 185.396 20.0146L177.862 37.9869C177.681 38.3954 177.681 38.8039 177.908 39.2123C178.135 39.6208 178.498 39.8023 178.952 39.8023C179.178 39.8023 179.405 39.7569 179.632 39.6208C179.859 39.4846 179.995 39.3031 180.132 39.0308L181.72 35.1277H191.432L193.021 39.0308C193.112 39.2577 193.293 39.4846 193.52 39.6208C193.747 39.7569 193.974 39.8023 194.201 39.8023C194.655 39.8023 195.018 39.6208 195.245 39.2577C195.472 38.8946 195.517 38.4862 195.335 38.0323ZM182.582 33.04L186.622 23.2369L190.615 33.04H182.582Z" fill="white"/>
</svg>
